<?xml version="1.0" encoding="utf-8"?>
<!-- Generator: Adobe Illustrator 23.0.6, SVG Export Plug-In . SVG Version: 6.00 Build 0)  -->
<svg version="1.1" id="Layer_1" xmlns="http://www.w3.org/2000/svg" xmlns:xlink="http://www.w3.org/1999/xlink" x="0px" y="0px"
	 viewBox="0 0 2834.65 2834.65" style="enable-background:new 0 0 2834.65 2834.65;" xml:space="preserve">
<style type="text/css">
	.st0{fill:#0071BC;stroke:#000000;stroke-miterlimit:10;}
	.st1{fill:#FFFFFF;stroke:#000000;stroke-miterlimit:10;}
</style>
<ellipse class="st0" cx="1417.32" cy="1417.32" rx="1093.86" ry="1145.5"/>
<path class="st1" d="M882.13,1700.79h-14.17c-46.97,0-85.04-38.07-85.04-85.04V1218.9c0-46.97,38.07-85.04,85.04-85.04h14.17
	c46.97,0,85.04,38.07,85.04,85.04v396.85C967.17,1662.72,929.1,1700.79,882.13,1700.79z"/>
<path class="st1" d="M1227.22,1837.97L1227.22,1837.97c-50.88,0-92.13-41.25-92.13-92.13v-382.68c0-50.88,41.25-92.13,92.13-92.13h0
	c50.88,0,92.13,41.25,92.13,92.13v382.68C1319.35,1796.72,1278.1,1837.97,1227.22,1837.97z"/>
<path class="st1" d="M1614.13,1700.79L1614.13,1700.79c-50.88,0-92.13-41.25-92.13-92.13v-382.68c0-50.88,41.25-92.13,92.13-92.13h0
	c50.88,0,92.13,41.25,92.13,92.13v382.68C1706.26,1659.54,1665.01,1700.79,1614.13,1700.79z"/>
<path class="st1" d="M1988.23,1837.97L1988.23,1837.97c-50.88,0-92.13-41.25-92.13-92.13v-382.68c0-50.88,41.25-92.13,92.13-92.13h0
	c50.88,0,92.13,41.25,92.13,92.13v382.68C2080.36,1796.72,2039.11,1837.97,1988.23,1837.97z"/>
</svg>
